<svg xmlns="http://www.w3.org/2000/svg" version="1.1" xmlns:xlink="http://www.w3.org/1999/xlink" width="512" height="512" x="0" y="0" viewBox="0 0 64 64" style="enable-background:new 0 0 512 512" xml:space="preserve" class="">
  <g>
    <g data-name="03-christmas tree">
      <path fill="#ffd45d" d="M35.779 9.721a1.078 1.078 0 0 1-1.71 1.06L32 9.261l-2.069 1.52a1.078 1.078 0 0 1-1.71-1.06l.24-1.17.29-1.41-1.409-1.381A1 1 0 0 1 28.021 4h1.99l1.019-2.4a1.083 1.083 0 0 1 1.94 0L33.989 4h1.99a1 1 0 0 1 .679 1.76l-1.409 1.381.28 1.38.01.01z" opacity="1" data-original="#ffd45d"></path>
      <path fill="#915041" d="M39 55.39V61a2 2 0 0 1-2 2H27a2 2 0 0 1-2-2v-5.61a7.338 7.338 0 0 0 1.34 1.56A8.577 8.577 0 0 0 32 59a8.238 8.238 0 0 0 7-3.61z" opacity="1" data-original="#915041"></path>
      <path fill="#004a2d" d="m25 41-1 11a7.182 7.182 0 0 1-7.08 6h-.83a5.088 5.088 0 0 1-3.83-8.44l3.88-5.11c.07.07.13.14.2.21A4.509 4.509 0 0 0 19.56 46h.15a4.562 4.562 0 0 0 4.33-3.12l.54-1.62a.442.442 0 0 1 .43-.31z" opacity="1" data-original="#004a2d"></path>
      <path fill="#007145" d="M39 55.39A8.238 8.238 0 0 1 32 59a8.577 8.577 0 0 1-5.66-2.05A7.338 7.338 0 0 1 25 55.39 6.26 6.26 0 0 1 24 52l1-11 .01-.05a.432.432 0 0 1 .41.31 6.936 6.936 0 0 0 13.16 0 .432.432 0 0 1 .41-.31L39 41l1 11a6.26 6.26 0 0 1-1 3.39z" opacity="1" data-original="#007145"></path>
      <path fill="#008f57" d="M39.96 42.88A4.562 4.562 0 0 0 44.29 46h.15a4.537 4.537 0 0 0 3.42-1.55l3.88 5.11A5.088 5.088 0 0 1 47.91 58h-.83A7.173 7.173 0 0 1 40 52l-1-11-.01-.05H39a.443.443 0 0 1 .42.31z" opacity="1" data-original="#008f57"></path>
      <path fill="#00613b" d="m26.99 28.05-1.98 12.9a.442.442 0 0 0-.43.31l-.54 1.62A4.562 4.562 0 0 1 19.71 46h-.15a4.509 4.509 0 0 1-3.22-1.34c-.07-.07-.13-.14-.2-.21A4.51 4.51 0 0 1 15 41.44a4.618 4.618 0 0 1 .82-2.62l5.12-7.3a3.749 3.749 0 0 0 1.85.48 3.8 3.8 0 0 0 3.74-3.17l.04-.27a.624.624 0 0 1 .42-.51z" opacity="1" data-original="#00613b"></path>
      <path fill="#008f57" d="M28.05 29.15A4.172 4.172 0 0 0 32 32a4.128 4.128 0 0 0 2.43-.79 4.223 4.223 0 0 0 1.52-2.06l.23-.69a.639.639 0 0 1 .83-.41l1.98 12.9a.432.432 0 0 0-.41.31 6.936 6.936 0 0 1-13.16 0 .432.432 0 0 0-.41-.31l1.98-12.9a.639.639 0 0 1 .83.41z" opacity="1" data-original="#008f57"></path>
      <path fill="#009e60" d="M47.86 44.45A4.537 4.537 0 0 1 44.44 46h-.15a4.562 4.562 0 0 1-4.33-3.12l-.54-1.62a.443.443 0 0 0-.42-.31h-.01l-1.98-12.9a.624.624 0 0 1 .42.51l.04.27A3.8 3.8 0 0 0 41.21 32a3.749 3.749 0 0 0 1.85-.48l5.12 7.3a4.618 4.618 0 0 1 .82 2.62 4.51 4.51 0 0 1-1.14 3.01z" opacity="1" data-original="#009e60"></path>
      <path fill="#00613b" d="M20.94 31.52A3.79 3.79 0 0 1 19 28.21v-.77a3.79 3.79 0 0 1 .96-2.52L24.27 19l.05-.02A3.107 3.107 0 0 0 27.11 21H28l-1 7-.01.05a.624.624 0 0 0-.42.51l-.04.27A3.8 3.8 0 0 1 22.79 32a3.749 3.749 0 0 1-1.85-.48z" opacity="1" data-original="#00613b"></path>
      <path fill="#008f57" d="M33.14 19a3.107 3.107 0 0 0 2.78 2H36l1 7 .01.05a.639.639 0 0 0-.83.41l-.23.69a4.223 4.223 0 0 1-1.52 2.06A4.128 4.128 0 0 1 32 32a4.172 4.172 0 0 1-3.95-2.85l-.23-.69a.639.639 0 0 0-.83-.41L27 28l1-7h.08a3.107 3.107 0 0 0 2.78-2l.14-.33a1.088 1.088 0 0 1 2 0z" opacity="1" data-original="#008f57"></path>
      <path fill="#009e60" d="m39.73 19 4.31 5.92a3.79 3.79 0 0 1 .96 2.52v.77a3.762 3.762 0 0 1-1.11 2.68 3.87 3.87 0 0 1-.83.63 3.749 3.749 0 0 1-1.85.48 3.8 3.8 0 0 1-3.74-3.17l-.04-.27a.624.624 0 0 0-.42-.51L37 28l-1-7h.89a2.878 2.878 0 0 0 2.2-1.06 3.865 3.865 0 0 0 .59-.96z" opacity="1" data-original="#009e60"></path>
      <path fill="#007145" d="M32 9.26v8.75a1.08 1.08 0 0 0-1 .66l-.14.33a3.107 3.107 0 0 1-2.78 2h-.97a3.107 3.107 0 0 1-2.79-2.02c0-.01-.01-.02-.01-.03a4.168 4.168 0 0 1 .16-3.5l2.94-5.48a5.817 5.817 0 0 1 1.05-1.42l-.24 1.17a1.078 1.078 0 0 0 1.71 1.06z" opacity="1" data-original="#007145"></path>
      <path fill="#009e60" d="M34.07 10.78a1.078 1.078 0 0 0 1.71-1.06l-.24-1.19a6.511 6.511 0 0 1 1.05 1.44l2.94 5.48a4.168 4.168 0 0 1 .16 3.5c0 .01-.01.02-.01.03a3.865 3.865 0 0 1-.59.96 2.878 2.878 0 0 1-2.2 1.06h-.97a3.107 3.107 0 0 1-2.78-2l-.14-.33a1.08 1.08 0 0 0-1-.66V9.26z" opacity="1" data-original="#009e60"></path>
      <path fill="#004a2d" d="m29.1 11.781 2.9-1.52v-1l-2.07 1.52a1.078 1.078 0 0 1-1.71-1.06l.24-1.17a5.817 5.817 0 0 0-1.05 1.42l-.665 1.24a1.763 1.763 0 0 0 2.355.57z" opacity="1" data-original="#004a2d"></path>
      <path fill="#009e60" d="M32 16c0 1.105-1.789 2-4 2a3.99 3.99 0 0 1-3.628-2.335A4.094 4.094 0 0 0 24 17.37a4.047 4.047 0 0 0 .31 1.58c0 .01.01.02.01.03A3.107 3.107 0 0 0 27.11 21h.97a3.107 3.107 0 0 0 2.78-2l.14-.33a1.08 1.08 0 0 1 1-.66z" opacity="1" data-original="#009e60"></path>
      <path fill="#00c477" d="M39.628 15.665A3.99 3.99 0 0 1 36 18c-2.211 0-4-.895-4-2v2.01a1.08 1.08 0 0 1 1 .66l.14.33a3.107 3.107 0 0 0 2.78 2h.97a2.878 2.878 0 0 0 2.2-1.06 3.865 3.865 0 0 0 .59-.96c0-.01.01-.02.01-.03a4.047 4.047 0 0 0 .31-1.58 4.094 4.094 0 0 0-.372-1.705z" opacity="1" data-original="#00c477"></path>
      <path fill="#007145" d="m35.54 8.53.24 1.19a1.078 1.078 0 0 1-1.71 1.06L32 9.26v1l2.9 1.52a1.763 1.763 0 0 0 2.358-.571L36.59 9.97a6.511 6.511 0 0 0-1.05-1.44z" opacity="1" data-original="#007145"></path>
      <path fill="#008f57" d="M27.286 26H27a1 1 0 0 0-1 1 3 3 0 0 1-3 3c-1.829 0-3.352-1.539-3.83-3.632A3.794 3.794 0 0 0 19 27.44v.77a3.79 3.79 0 0 0 1.94 3.31 3.749 3.749 0 0 0 1.85.48 3.8 3.8 0 0 0 3.74-3.17l.04-.27a.624.624 0 0 1 .42-.51L27 28z" opacity="1" data-original="#008f57"></path>
      <path fill="#009e60" d="M36.714 26H36a1 1 0 0 0-1 1 2.7 2.7 0 0 1-3 3 2.7 2.7 0 0 1-3-3 1 1 0 0 0-1-1h-.714L27 28l-.01.05a.639.639 0 0 1 .83.41l.23.69A4.172 4.172 0 0 0 32 32a4.128 4.128 0 0 0 2.43-.79 4.223 4.223 0 0 0 1.52-2.06l.23-.69a.639.639 0 0 1 .83-.41L37 28z" opacity="1" data-original="#009e60"></path>
      <path fill="#00c477" d="M41 30a3 3 0 0 1-3-3 1 1 0 0 0-1-1h-.286L37 28l.01.05a.624.624 0 0 1 .42.51l.04.27A3.8 3.8 0 0 0 41.21 32a3.749 3.749 0 0 0 1.85-.48 3.87 3.87 0 0 0 .83-.63A3.762 3.762 0 0 0 45 28.21v-.77a3.794 3.794 0 0 0-.17-1.072C44.352 28.461 42.829 30 41 30z" opacity="1" data-original="#00c477"></path>
      <path fill="#004a2d" d="M27.724 22.935 28 21h-.89a3.107 3.107 0 0 1-2.79-2.02l-.05.02-1.456 2a6.27 6.27 0 0 0 4.91 1.935z" opacity="1" data-original="#004a2d"></path>
      <path fill="#00613b" d="m31 22 1-1 1 1a8.4 8.4 0 0 0 3.276.935L36 21h-.08a3.107 3.107 0 0 1-2.78-2l-.14-.33a1.088 1.088 0 0 0-2 0l-.14.33a3.107 3.107 0 0 1-2.78 2H28l-.276 1.935A8.4 8.4 0 0 0 31 22z" opacity="1" data-original="#00613b"></path>
      <path fill="#007145" d="m41.186 21-1.456-2-.05-.02a3.865 3.865 0 0 1-.59.96 2.878 2.878 0 0 1-2.2 1.06H36l.276 1.935A6.27 6.27 0 0 0 41.186 21z" opacity="1" data-original="#007145"></path>
      <path fill="#008f57" d="M25 39c-3 0-2 5-6 5-3.175 0-3.2-3.771-3.074-5.331l-.106.151a4.618 4.618 0 0 0-.82 2.62 4.51 4.51 0 0 0 1.14 3.01c.07.07.13.14.2.21A4.509 4.509 0 0 0 19.56 46h.15a4.562 4.562 0 0 0 4.33-3.12l.54-1.62a.442.442 0 0 1 .43-.31l.3-1.935c-.104-.007-.205-.015-.31-.015z" opacity="1" data-original="#008f57"></path>
      <path fill="#009e60" d="M37 40a4 4 0 0 1-4 4h-2a4 4 0 0 1-4-4c0-.5-.735-.91-1.693-.985l-.3 1.935a.432.432 0 0 1 .41.31 6.936 6.936 0 0 0 13.16 0 .432.432 0 0 1 .41-.31l-.3-1.935C37.735 39.09 37 39.5 37 40z" opacity="1" data-original="#009e60"></path>
      <path fill="#00c477" d="m48.18 38.82-.232-.331c.138 1.425.245 5.511-3.059 5.511-3.983 0-3.011-4.954-5.965-5-.078 0-.155.006-.231.011l.3 1.935H39a.443.443 0 0 1 .42.31l.54 1.62A4.562 4.562 0 0 0 44.29 46h.15A4.57 4.57 0 0 0 49 41.44a4.618 4.618 0 0 0-.82-2.62z" opacity="1" data-original="#00c477"></path>
      <path fill="#004a2d" d="M25.4 32.688a.95.95 0 0 1 .907-.186l.683-4.452a.624.624 0 0 0-.42.51l-.04.27A3.8 3.8 0 0 1 22.79 32a3.749 3.749 0 0 1-1.85-.48l-1.208 1.722c1.292.374 3.999.907 5.668-.554z" opacity="1" data-original="#004a2d"></path>
      <path fill="#00613b" d="M26.614 32.659C27.36 33.242 28.922 34 32 34s4.64-.758 5.386-1.341a.942.942 0 0 1 .307-.157l-.683-4.452a.639.639 0 0 0-.83.41l-.23.69a4.223 4.223 0 0 1-1.52 2.06A4.128 4.128 0 0 1 32 32a4.172 4.172 0 0 1-3.95-2.85l-.23-.69a.639.639 0 0 0-.83-.41l-.683 4.45a.942.942 0 0 1 .307.159z" opacity="1" data-original="#00613b"></path>
      <path fill="#007145" d="M38.6 32.688c1.669 1.461 4.376.928 5.668.554L43.06 31.52a3.749 3.749 0 0 1-1.85.48 3.8 3.8 0 0 1-3.74-3.17l-.04-.27a.624.624 0 0 0-.42-.51l.683 4.452a.95.95 0 0 1 .907.186zM24 51c-2 0-3 4-8 4-3.362 0-4.008-2.611-4.073-4.981A5.071 5.071 0 0 0 16.09 58h.83A7.182 7.182 0 0 0 24 52l.089-.982A.876.876 0 0 0 24 51z" opacity="1" data-original="#007145"></path>
      <path fill="#008f57" d="M38.918 52c-.918 2.989-3.118 3.982-6.959 4H32h-.082.041C28.117 55.982 26 54.989 25 52a.99.99 0 0 0-.911-.982L24 52a6.26 6.26 0 0 0 1 3.39 7.338 7.338 0 0 0 1.34 1.56A8.577 8.577 0 0 0 32 59a8.238 8.238 0 0 0 7-3.61A6.26 6.26 0 0 0 40 52l-.091-1a1 1 0 0 0-.991 1z" opacity="1" data-original="#008f57"></path>
      <path fill="#009e60" d="M52 49.912C51.947 52.279 51.33 55 47.918 55c-5 0-6-4-8-4h-.009L40 52a7.173 7.173 0 0 0 7.08 6h.83A5.061 5.061 0 0 0 52 49.912z" opacity="1" data-original="#009e60"></path>
      <path fill="#003b24" d="M22.265 46.4a2.58 2.58 0 0 1 1.724-.4 3.6 3.6 0 0 1 .551.06L25 41l.01-.05a.442.442 0 0 0-.43.31l-.54 1.62A4.562 4.562 0 0 1 19.71 46h-.15a4.509 4.509 0 0 1-3.22-1.34c-.07-.07-.13-.14-.2-.21l-1.656 2.181c1.04 1.179 3.74 3.3 7.781-.231z" opacity="1" data-original="#003b24"></path>
      <path fill="#004a2d" d="M24.54 46.06a4.146 4.146 0 0 1 2.312 1.187A6.937 6.937 0 0 0 32 49a6.937 6.937 0 0 0 5.148-1.753 4.146 4.146 0 0 1 2.312-1.187L39 41l-.01-.05a.432.432 0 0 0-.41.31 6.936 6.936 0 0 1-13.16 0 .432.432 0 0 0-.41-.31L25 41z" opacity="1" data-original="#004a2d"></path>
      <path fill="#00613b" d="M39.46 46.06a3.6 3.6 0 0 1 .551-.06 2.58 2.58 0 0 1 1.724.4c4.041 3.53 6.741 1.409 7.781.23l-1.656-2.18A4.537 4.537 0 0 1 44.44 46h-.15a4.562 4.562 0 0 1-4.33-3.12l-.54-1.62a.443.443 0 0 0-.42-.31h-.01L39 41z" opacity="1" data-original="#00613b"></path>
      <path fill="#61362b" d="M27 61.71a1.269 1.269 0 0 1 1.529-1.262A16.659 16.659 0 0 0 39 59.5v-4.1a8.238 8.238 0 0 1-7 3.6 8.577 8.577 0 0 1-5.66-2.05A7.338 7.338 0 0 1 25 55.39V61a2 2 0 0 0 2 2h1.29A1.289 1.289 0 0 1 27 61.71z" opacity="1" data-original="#61362b"></path>
      <path fill="#f0af4c" d="M32 1a1.081 1.081 0 0 0-.97.6L30.011 4H30l2 2z" opacity="1" data-original="#f0af4c"></path>
      <path fill="#ffba51" d="M30 4h-1.979a.967.967 0 0 0-1.011 1L32 6z" opacity="1" data-original="#ffba51"></path>
      <path fill="#faf180" d="M34 4h-.011L32.97 1.6A1.081 1.081 0 0 0 32 1v5z" opacity="1" data-original="#faf180"></path>
      <path fill="#ffba51" d="m35.293 7.1 1.365-1.337A1.083 1.083 0 0 0 36.99 5L32 6z" opacity="1" data-original="#ffba51"></path>
      <path fill="#ffd45d" d="M36.99 5a.967.967 0 0 0-1.011-1H34l-2 2z" opacity="1" data-original="#ffd45d"></path>
      <path fill="#f0af4c" d="M27.01 5a1.083 1.083 0 0 0 .332.759L28.707 7.1 32 6z" opacity="1" data-original="#f0af4c"></path>
      <path fill="#ffba51" d="m32 9.261 2.069 1.521a1.069 1.069 0 0 0 1.17.076L32 6z" opacity="1" data-original="#ffba51"></path>
      <path fill="#ffd45d" d="m35.779 9.721-.24-1.19-.01-.01-.28-1.38.044-.043L32 6l3.239 4.858a1.036 1.036 0 0 0 .54-1.137zM28.707 7.1l.044.043-.29 1.41-.24 1.17a1.036 1.036 0 0 0 .54 1.137L32 6z" opacity="1" data-original="#ffd45d"></path>
      <path fill="#faf180" d="M28.761 10.858a1.069 1.069 0 0 0 1.17-.076L32 9.261V6z" opacity="1" data-original="#faf180"></path>
      <path fill="#ebebff" d="m41.833 46.5-.254.5h-.392a.183.183 0 0 0-.132.312l.313.307-.114.563a.185.185 0 0 0 .294.181l.452-.332.452.332a.185.185 0 0 0 .294-.181l-.114-.563.313-.307a.183.183 0 0 0-.132-.312h-.392l-.254-.5a.188.188 0 0 0-.334 0zM28.833 36.5l-.254.5h-.392a.183.183 0 0 0-.132.312l.313.307-.114.563a.185.185 0 0 0 .294.181l.452-.332.452.332a.185.185 0 0 0 .294-.181l-.114-.563.313-.307a.183.183 0 0 0-.132-.312h-.392l-.254-.5a.188.188 0 0 0-.334 0zM35.833 34.5l-.254.5h-.392a.183.183 0 0 0-.132.312l.313.307-.114.563a.185.185 0 0 0 .294.181l.452-.332.452.332a.185.185 0 0 0 .294-.181l-.114-.563.313-.307a.183.183 0 0 0-.132-.312h-.392l-.254-.5a.188.188 0 0 0-.334 0z" opacity="1" data-original="#ebebff"></path>
      <path fill="#fffefe" d="m41.833 25.5-.254.5h-.392a.183.183 0 0 0-.132.312l.313.307-.114.563a.185.185 0 0 0 .294.181l.452-.332.452.332a.185.185 0 0 0 .294-.181l-.114-.563.313-.307a.183.183 0 0 0-.132-.312h-.392l-.254-.5a.188.188 0 0 0-.334 0z" opacity="1" data-original="#fffefe"></path>
      <path fill="#a4afe6" d="m27.833 13.5-.254.5h-.392a.183.183 0 0 0-.132.312l.313.307-.114.563a.185.185 0 0 0 .294.181l.452-.332.452.332a.185.185 0 0 0 .294-.181l-.114-.563.313-.307a.183.183 0 0 0-.132-.312h-.392l-.254-.5a.188.188 0 0 0-.334 0zM23.083 47.694l-.513.167-.268-.268a.176.176 0 0 0-.3.123v.423l-.462.3a.18.18 0 0 0 .077.325l.535.082.081.534a.179.179 0 0 0 .325.077l.3-.462h.423a.175.175 0 0 0 .123-.3l-.267-.267.166-.513a.182.182 0 0 0-.22-.221zM13.833 49.5l-.254.5h-.392a.183.183 0 0 0-.132.312l.313.307-.114.563a.185.185 0 0 0 .294.181l.452-.332.452.332a.185.185 0 0 0 .294-.181l-.114-.563.313-.307a.183.183 0 0 0-.132-.312h-.392l-.254-.5a.188.188 0 0 0-.334 0z" opacity="1" data-original="#a4afe6"></path>
      <path fill="#ebebff" d="M43.917 35.752 43.79 36h-.2a.091.091 0 0 0-.066.155l.156.153-.057.281a.093.093 0 0 0 .147.091l.23-.166.225.166a.093.093 0 0 0 .147-.091l-.057-.281.156-.153a.091.091 0 0 0-.066-.155h-.2l-.127-.248a.093.093 0 0 0-.161 0z" opacity="1" data-original="#ebebff"></path>
      <path fill="#a4afe6" d="M18.917 40.752 18.79 41h-.2a.091.091 0 0 0-.066.155l.156.153-.057.281a.093.093 0 0 0 .147.091l.23-.166.225.166a.093.093 0 0 0 .147-.091l-.057-.281.156-.153a.091.091 0 0 0-.066-.155h-.2l-.127-.248a.093.093 0 0 0-.161 0z" opacity="1" data-original="#a4afe6"></path>
      <path fill="#ebebff" d="M26.917 41.752 26.79 42h-.2a.091.091 0 0 0-.066.155l.156.153-.057.281a.093.093 0 0 0 .147.091l.23-.166.225.166a.093.093 0 0 0 .147-.091l-.057-.281.156-.153a.091.091 0 0 0-.066-.155h-.2l-.127-.248a.093.093 0 0 0-.161 0zM47.917 52.752 47.79 53h-.2a.091.091 0 0 0-.066.155l.156.153-.057.281a.093.093 0 0 0 .147.091l.23-.166.225.166a.093.093 0 0 0 .147-.091l-.057-.281.156-.153a.091.091 0 0 0-.066-.155h-.2l-.127-.248a.093.093 0 0 0-.161 0z" opacity="1" data-original="#ebebff"></path>
      <path fill="#fffefe" d="M36.917 12.752 36.79 13h-.2a.091.091 0 0 0-.066.155l.156.153-.057.281a.093.093 0 0 0 .147.091l.23-.166.225.166a.093.093 0 0 0 .147-.091l-.057-.281.156-.153a.091.091 0 0 0-.066-.155h-.2l-.127-.248a.093.093 0 0 0-.161 0z" opacity="1" data-original="#fffefe"></path>
      <path fill="#a4afe6" d="M30.917 15.752 30.79 16h-.2a.091.091 0 0 0-.066.155l.156.153-.057.281a.093.093 0 0 0 .147.091l.23-.166.225.166a.093.093 0 0 0 .147-.091l-.057-.281.156-.153a.091.091 0 0 0-.066-.155h-.2l-.127-.248a.093.093 0 0 0-.161 0z" opacity="1" data-original="#a4afe6"></path>
      <path fill="#ebebff" d="m45.347 39.459.083.256-.133.134a.088.088 0 0 0 .061.151h.212l.152.231a.09.09 0 0 0 .163-.039l.04-.267.268-.041a.09.09 0 0 0 .038-.162L46 39.567v-.211a.088.088 0 0 0-.151-.061l-.134.133-.256-.083a.091.091 0 0 0-.112.114zM42.347 41.459l.083.256-.133.134a.088.088 0 0 0 .061.151h.212l.152.231a.09.09 0 0 0 .163-.039l.04-.267.268-.041a.09.09 0 0 0 .038-.162L43 41.567v-.211a.088.088 0 0 0-.151-.061l-.134.133-.256-.083a.091.091 0 0 0-.112.114zM36.347 48.459l.083.256-.133.134a.088.088 0 0 0 .061.151h.212l.152.231a.09.09 0 0 0 .163-.039l.04-.267.268-.041a.09.09 0 0 0 .038-.162L37 48.567v-.211a.088.088 0 0 0-.151-.061l-.134.133-.256-.083a.091.091 0 0 0-.112.114z" opacity="1" data-original="#ebebff"></path>
      <path fill="#a4afe6" d="m28.347 53.459.083.256-.133.134a.088.088 0 0 0 .061.151h.212l.152.231a.09.09 0 0 0 .163-.039l.04-.267.268-.041a.09.09 0 0 0 .038-.162L29 53.567v-.211a.088.088 0 0 0-.151-.061l-.134.133-.256-.083a.091.091 0 0 0-.112.114zM19.347 53.459l.083.256-.133.134a.088.088 0 0 0 .061.151h.212l.152.231a.09.09 0 0 0 .163-.039l.04-.267.268-.041a.09.09 0 0 0 .038-.162L20 53.567v-.211a.088.088 0 0 0-.151-.061l-.134.133-.256-.083a.091.091 0 0 0-.112.114zM19.347 38.459l.083.256-.133.134a.088.088 0 0 0 .061.151h.212l.152.231a.09.09 0 0 0 .163-.039l.04-.267.268-.041a.09.09 0 0 0 .038-.162L20 38.567v-.211a.088.088 0 0 0-.151-.061l-.134.133-.256-.083a.091.091 0 0 0-.112.114zM21.917 26.752 21.79 27h-.2a.091.091 0 0 0-.066.155l.156.153-.057.281a.093.093 0 0 0 .147.091l.23-.166.225.166a.093.093 0 0 0 .147-.091l-.057-.281.156-.153a.091.091 0 0 0-.066-.155h-.2l-.127-.248a.093.093 0 0 0-.161 0z" opacity="1" data-original="#a4afe6"></path>
      <path fill="#ebebff" d="M39.917 28.752 39.79 29h-.2a.091.091 0 0 0-.066.155l.156.153-.057.281a.093.093 0 0 0 .147.091l.23-.166.225.166a.093.093 0 0 0 .147-.091l-.057-.281.156-.153a.091.091 0 0 0-.066-.155h-.2l-.127-.248a.093.093 0 0 0-.161 0z" opacity="1" data-original="#ebebff"></path>
      <path fill="#a4afe6" d="m32.347 22.459.083.256-.133.134a.088.088 0 0 0 .061.151h.212l.152.231a.09.09 0 0 0 .163-.039l.04-.267.268-.041a.09.09 0 0 0 .038-.162L33 22.567v-.211a.088.088 0 0 0-.151-.061l-.134.133-.256-.083a.091.091 0 0 0-.112.114z" opacity="1" data-original="#a4afe6"></path>
      <path fill="#004a2d" d="M32 14a1.99 1.99 0 0 1 .18-.82 2 2 0 1 0 2.64 2.64A1.992 1.992 0 0 1 32 14zM37 24a1.99 1.99 0 0 1 .18-.82 2 2 0 1 0 2.64 2.64A1.992 1.992 0 0 1 37 24zM30 26a1.99 1.99 0 0 1 .18-.82 2 2 0 1 0 2.64 2.64A1.992 1.992 0 0 1 30 26z" opacity="1" data-original="#004a2d"></path>
      <path fill="#003b24" d="M23 24a1.99 1.99 0 0 1 .18-.82 2 2 0 1 0 2.64 2.64A1.992 1.992 0 0 1 23 24z" opacity="1" data-original="#003b24"></path>
      <g fill="#004a2d">
        <path d="M39 36a1.99 1.99 0 0 1 .18-.82 2 2 0 1 0 2.64 2.64A1.992 1.992 0 0 1 39 36zM31 40a1.99 1.99 0 0 1 .18-.82 2 2 0 1 0 2.64 2.64A1.992 1.992 0 0 1 31 40zM45 49a1.99 1.99 0 0 1 .18-.82 2 2 0 1 0 2.64 2.64A1.992 1.992 0 0 1 45 49zM32 53a1.99 1.99 0 0 1 .18-.82 2 2 0 1 0 2.64 2.64A1.992 1.992 0 0 1 32 53zM26 48a1.99 1.99 0 0 1 .18-.82 2 2 0 1 0 2.64 2.64A1.992 1.992 0 0 1 26 48z" fill="#004a2d" opacity="1" data-original="#004a2d"></path>
      </g>
      <path fill="#003b24" d="M16 51a1.99 1.99 0 0 1 .18-.82 2 2 0 1 0 2.64 2.64A1.992 1.992 0 0 1 16 51zM21 36a1.99 1.99 0 0 1 .18-.82 2 2 0 1 0 2.64 2.64A1.992 1.992 0 0 1 21 36z" opacity="1" data-original="#003b24"></path>
      <path fill="#a4afe6" d="m37.626 11.9-.478-.89C33.366 13.813 30.487 15.5 25 15.5h-.553a3.922 3.922 0 0 0-.351 1H25c5.712 0 8.836-1.8 12.626-4.6zM42.278 22.5l-.657-.9c-1.629.52-12.235 3.78-22.08 3.9a3.768 3.768 0 0 0-.407 1c10.455-.031 21.888-3.656 22.946-4zM45.15 34.5l-.577-.823c-1.228.74-10.243 5.742-29.134 5.819a4.586 4.586 0 0 0-.329 1c19.733-.02 28.818-5.238 30.036-6z" opacity="1" data-original="#a4afe6"></path>
      <path fill="#2a2e33" d="m23.835 52.729.217-.01A6.319 6.319 0 0 1 24 52a7.338 7.338 0 0 1-.165.729z" opacity="1" data-original="#2a2e33"></path>
      <path fill="#a4afe6" d="m49.417 46.5-.692-.911c-.006 0-.013 0-.019.007-.109.078-11.108 7.83-37.488 5.918a5.009 5.009 0 0 0-.181.989c3.023.223 5.842.322 8.47.322 1.509 0 2.946-.036 4.328-.1A7.338 7.338 0 0 0 24 52a6.319 6.319 0 0 0 .052.719c16.411-.757 23.973-5.45 25.1-6.219z" opacity="1" data-original="#a4afe6"></path>
      <circle cx="34" cy="14" r="2" fill="#eb2335" opacity="1" data-original="#eb2335"></circle>
      <path fill="#c22026" d="M33 13a1.99 1.99 0 0 1 .18-.82 2 2 0 1 0 2.64 2.64A1.992 1.992 0 0 1 33 13z" opacity="1" data-original="#c22026"></path>
      <path fill="#f6fafd" d="M34 13a1 1 0 0 0 1.9.416 1.989 1.989 0 0 0-1.316-1.316.994.994 0 0 0-.584.9z" opacity="1" data-original="#f6fafd"></path>
      <circle cx="39" cy="24" r="2" fill="#eb2335" opacity="1" data-original="#eb2335"></circle>
      <path fill="#c22026" d="M38 23a1.99 1.99 0 0 1 .18-.82 2 2 0 1 0 2.64 2.64A1.992 1.992 0 0 1 38 23z" opacity="1" data-original="#c22026"></path>
      <path fill="#f6fafd" d="M39 23a1 1 0 0 0 1.9.416 1.989 1.989 0 0 0-1.316-1.316.994.994 0 0 0-.584.9z" opacity="1" data-original="#f6fafd"></path>
      <circle cx="25" cy="24" r="2" fill="#eb2335" opacity="1" data-original="#eb2335"></circle>
      <path fill="#c22026" d="M24 23a1.99 1.99 0 0 1 .18-.82 2 2 0 1 0 2.64 2.64A1.992 1.992 0 0 1 24 23z" opacity="1" data-original="#c22026"></path>
      <path fill="#f6fafd" d="M25 23a1 1 0 0 0 1.9.416 1.989 1.989 0 0 0-1.316-1.316.994.994 0 0 0-.584.9z" opacity="1" data-original="#f6fafd"></path>
      <circle cx="32" cy="26" r="2" fill="#ffd45d" opacity="1" data-original="#ffd45d"></circle>
      <path fill="#f0af4c" d="M31 25a1.99 1.99 0 0 1 .18-.82 2 2 0 1 0 2.64 2.64A1.992 1.992 0 0 1 31 25z" opacity="1" data-original="#f0af4c"></path>
      <path fill="#f6fafd" d="M32 25a1 1 0 0 0 1.9.416 1.989 1.989 0 0 0-1.316-1.316.994.994 0 0 0-.584.9z" opacity="1" data-original="#f6fafd"></path>
      <circle cx="41" cy="36" r="2" fill="#ffd45d" opacity="1" data-original="#ffd45d"></circle>
      <path fill="#f0af4c" d="M40 35a1.99 1.99 0 0 1 .18-.82 2 2 0 1 0 2.64 2.64A1.992 1.992 0 0 1 40 35z" opacity="1" data-original="#f0af4c"></path>
      <path fill="#f6fafd" d="M41 35a1 1 0 0 0 1.9.416 1.989 1.989 0 0 0-1.316-1.316.994.994 0 0 0-.584.9z" opacity="1" data-original="#f6fafd"></path>
      <circle cx="33" cy="40" r="2" fill="#eb2335" opacity="1" data-original="#eb2335"></circle>
      <path fill="#c22026" d="M32 39a1.99 1.99 0 0 1 .18-.82 2 2 0 1 0 2.64 2.64A1.992 1.992 0 0 1 32 39z" opacity="1" data-original="#c22026"></path>
      <path fill="#f6fafd" d="M33 39a1 1 0 0 0 1.9.416 1.989 1.989 0 0 0-1.316-1.316.994.994 0 0 0-.584.9z" opacity="1" data-original="#f6fafd"></path>
      <circle cx="47" cy="49" r="2" fill="#ffd45d" opacity="1" data-original="#ffd45d"></circle>
      <path fill="#f0af4c" d="M46 48a1.99 1.99 0 0 1 .18-.82 2 2 0 1 0 2.64 2.64A1.992 1.992 0 0 1 46 48z" opacity="1" data-original="#f0af4c"></path>
      <path fill="#f6fafd" d="M47 48a1 1 0 0 0 1.9.416 1.989 1.989 0 0 0-1.316-1.316.994.994 0 0 0-.584.9z" opacity="1" data-original="#f6fafd"></path>
      <circle cx="34" cy="53" r="2" fill="#eb2335" opacity="1" data-original="#eb2335"></circle>
      <path fill="#c22026" d="M33 52a1.99 1.99 0 0 1 .18-.82 2 2 0 1 0 2.64 2.64A1.992 1.992 0 0 1 33 52z" opacity="1" data-original="#c22026"></path>
      <path fill="#f6fafd" d="M34 52a1 1 0 0 0 1.9.416 1.989 1.989 0 0 0-1.316-1.316.994.994 0 0 0-.584.9z" opacity="1" data-original="#f6fafd"></path>
      <circle cx="28" cy="48" r="2" fill="#ced1ea" opacity="1" data-original="#ced1ea"></circle>
      <path fill="#a4afe6" d="M27 47a1.99 1.99 0 0 1 .18-.82 2 2 0 1 0 2.64 2.64A1.992 1.992 0 0 1 27 47z" opacity="1" data-original="#a4afe6"></path>
      <path fill="#f6fafd" d="M28 47a1 1 0 0 0 1.9.416 1.989 1.989 0 0 0-1.316-1.316.994.994 0 0 0-.584.9z" opacity="1" data-original="#f6fafd"></path>
      <circle cx="18" cy="51" r="2" fill="#ffd45d" opacity="1" data-original="#ffd45d"></circle>
      <path fill="#f0af4c" d="M17 50a1.99 1.99 0 0 1 .18-.82 2 2 0 1 0 2.64 2.64A1.992 1.992 0 0 1 17 50z" opacity="1" data-original="#f0af4c"></path>
      <path fill="#f6fafd" d="M18 50a1 1 0 0 0 1.9.416 1.989 1.989 0 0 0-1.316-1.316.994.994 0 0 0-.584.9z" opacity="1" data-original="#f6fafd"></path>
      <circle cx="23" cy="36" r="2" fill="#ced1ea" opacity="1" data-original="#ced1ea"></circle>
      <path fill="#a4afe6" d="M22 35a1.99 1.99 0 0 1 .18-.82 2 2 0 1 0 2.64 2.64A1.992 1.992 0 0 1 22 35z" opacity="1" data-original="#a4afe6"></path>
      <path fill="#f6fafd" d="M23 35a1 1 0 0 0 1.9.416 1.989 1.989 0 0 0-1.316-1.316.994.994 0 0 0-.584.9z" opacity="1" data-original="#f6fafd"></path>
    </g>
  </g>
</svg>